<svg xmlns="http://www.w3.org/2000/svg" width="88" height="88" viewBox="0 0 88 88">
  <defs>
    <style>
      .cls-1 {
        fill: #aeb8c4;
        fill-rule: evenodd;
      }
    </style>
  </defs>
  <path id="ICON_EXPLORE_COINS" data-name="ICON EXPLORE COINS" class="cls-1" d="M3508,4011.99a44,44,0,1,1,44-44A43.873,43.873,0,0,1,3508,4011.99Zm21.41-67.2c-0.17,0-.35.17-0.53,0.17l-32.12,10.71a1.629,1.629,0,0,0-1.08,1.07l-10.7,32.13a0.632,0.632,0,0,0-.18.53,1.687,1.687,0,0,0,1.78,1.79c0.18,0,.36-0.18.54-0.18l32.12-10.71a1.614,1.614,0,0,0,1.07-1.07l10.71-32.12a0.661,0.661,0,0,0,.18-0.54A1.687,1.687,0,0,0,3529.41,3944.79Zm-20.61,28.8a6.4,6.4,0,1,1,6.4-6.4A6.4,6.4,0,0,1,3508.8,3973.59Z" transform="translate(-3464 -3924)"/>
</svg>
