<svg xmlns="http://www.w3.org/2000/svg" width="72" height="86" viewBox="0 0 72 86">
  <defs>
    <style>
      .cls-1 {
        fill: #aeb8c4;
        fill-rule: evenodd;
      }
    </style>
  </defs>
  <path id="ICON_NOTIFICATION" data-name="ICON NOTIFICATION" class="cls-1" d="M3872.63,3990.46A4.913,4.913,0,0,1,3869,3993h-62a4.93,4.93,0,0,1-3.64-2.54c-3.53-6.74.62-10.47,2.86-12.48a10.232,10.232,0,0,0,2.2-2.4c0.04-.06.06-0.11,0.09-0.15,1.59-2.62,2.18-8.96,2.52-12.75,0.05-.56.1-1.1,0.15-1.6,0.01-.04.01-0.09,0.02-0.14,0.78-5.62,2.72-13.69,7.51-20.34a23.873,23.873,0,0,1,12.44-9.28,6.866,6.866,0,0,1,13.69,0,23.835,23.835,0,0,1,12.44,9.28c4.8,6.65,6.73,14.72,7.51,20.32a1.37,1.37,0,0,1,.02.16c0.05,0.5.1,1.04,0.15,1.6,0.35,3.79.93,10.13,2.52,12.73,0.04,0.07.07,0.13,0.1,0.18a10.182,10.182,0,0,0,2.2,2.39C3872.01,3979.99,3876.17,3983.72,3872.63,3990.46Zm-42,9.55h14.48a1.832,1.832,0,0,1,1.47.69,2.412,2.412,0,0,1,.34,2.01c-0.01.03-.01,0.07-0.02,0.09a8.936,8.936,0,0,1-17.78.33l-0.01-.06a3.1,3.1,0,0,1,.31-2.46A1.54,1.54,0,0,1,3830.63,4000.01Z" transform="translate(-3801.97 -3925)"/>
</svg>
