<svg xmlns="http://www.w3.org/2000/svg" width="88.03" height="88.03" viewBox="0 0 88.03 88.03">
  <defs>
    <style>
      .cls-1 {
        fill: #aeb8c4;
        fill-rule: evenodd;
      }
    </style>
  </defs>
  <path id="ICON_SETTINGS" data-name="ICON SETTINGS" class="cls-1" d="M4212.01,3968a8.74,8.74,0,0,0-5.26-7.8c-2.91-1.03-5.73-3.55-6.55-5.53s-0.61-5.78.72-8.56a8.412,8.412,0,0,0-11.03-11.03c-2.79,1.32-6.57,1.54-8.55.72s-4.51-3.64-5.54-6.55a8.415,8.415,0,0,0-15.61,0c-1.03,2.91-3.55,5.73-5.53,6.55s-5.77.6-8.55-.72a8.408,8.408,0,0,0-11.03,11.03c1.32,2.79,1.53,6.57.71,8.55s-3.63,4.51-6.54,5.54a8.407,8.407,0,0,0,0,15.6c2.91,1.03,5.72,3.56,6.54,5.54s0.61,5.76-.71,8.55a8.412,8.412,0,0,0,11.03,11.03c2.79-1.33,6.56-1.54,8.55-.72s4.5,3.65,5.53,6.55a8.421,8.421,0,0,0,15.61,0c1.03-2.9,3.55-5.73,5.53-6.55s5.77-.61,8.56.72a8.416,8.416,0,0,0,11.03-11.03c-1.33-2.79-1.54-6.57-.73-8.55s3.65-4.51,6.56-5.54A8.763,8.763,0,0,0,4212.01,3968ZM4168,3984.15a16.145,16.145,0,1,1,16.13-16.14A16.134,16.134,0,0,1,4168,3984.15Z" transform="translate(-4123.97 -3923.97)"/>
</svg>
