<?xml version="1.0" encoding="utf-8"?>
<!-- Generator: Adobe Illustrator 26.0.2, SVG Export Plug-In . SVG Version: 6.00 Build 0)  -->
<svg version="1.1" id="Layer_1" xmlns="http://www.w3.org/2000/svg" xmlns:xlink="http://www.w3.org/1999/xlink" x="0px" y="0px"
	 viewBox="0 0 88 87" style="enable-background:new 0 0 88 87;" xml:space="preserve">
<style type="text/css">
	.st0{fill-rule:evenodd;clip-rule:evenodd;fill:#4C5968;}
</style>
<path class="st0" d="M78,24H18c-3.3,0-6-2.7-6-6s2.7-6,6-6h41.5c3,0,5.5-2.5,5.5-5.5v-1c0-3-2.5-5.5-5.5-5.5H10C4.5,0,0,4.5,0,10v67
	c0,5.5,4.5,10,10,10h68c5.5,0,10-4.5,10-10V34C88,28.5,83.5,24,78,24z M68,63c-4.4,0-8-3.6-8-8s3.6-8,8-8s8,3.6,8,8S72.4,63,68,63z"
	/>
</svg>
